<?xml version="1.0" encoding="UTF-8"?>
<svg version="1.1" xmlns="http://www.w3.org/2000/svg" width="800" height="600">
<path d="M0 0 C264 0 528 0 800 0 C800 198 800 396 800 600 C536 600 272 600 0 600 C0 402 0 204 0 0 Z " fill="#FEFEFE" transform="translate(0,0)"/>
<path d="M0 0 C4.18976337 3.03084736 8.14013247 6.29131855 12.05126953 9.671875 C12.86337891 10.35894531 13.67548828 11.04601562 14.51220703 11.75390625 C18.08367086 14.99363332 18.08367086 14.99363332 19.05126953 16.671875 C18.58654557 21.4649322 16.38830806 25.43058017 14.25439453 29.6640625 C13.86926697 30.43836609 13.4841394 31.21266968 13.08734131 32.01043701 C11.83243374 34.52621804 10.56763448 37.03684386 9.30126953 39.546875 C8.65617432 40.83208038 8.65617432 40.83208038 7.99804688 42.14324951 C1.51690238 55.04665744 -5.2611732 67.70265381 -12.52392578 80.18505859 C-14.40694767 83.47163518 -16.19918644 86.80362687 -17.99267578 90.13964844 C-55.89361211 160.46354277 -55.89361211 160.46354277 -70.09716797 165.421875 C-74.4417698 165.90968994 -76.44232377 165.93412132 -80.44873047 163.859375 C-82.94873047 161.671875 -82.94873047 161.671875 -83.94873047 159.671875 C-84.37982969 151.98666302 -81.1513997 147.21464803 -76.57373047 141.359375 C-75.98333984 140.57498047 -75.39294922 139.79058594 -74.78466797 138.98242188 C-73.68682713 137.52728825 -72.58174133 136.07756851 -71.46679688 134.63549805 C-69.94105328 132.66194454 -68.44119967 130.67066786 -66.94873047 128.671875 C-74.43562484 129.97505146 -81.85339905 131.47777634 -89.26123047 133.171875 C-90.210625 133.38457031 -91.16001953 133.59726562 -92.13818359 133.81640625 C-96.8358795 134.88510748 -101.4101021 136.0297582 -105.94873047 137.671875 C-105.94873047 138.331875 -105.94873047 138.991875 -105.94873047 139.671875 C-107.46466797 140.2596875 -107.46466797 140.2596875 -109.01123047 140.859375 C-111.87636826 142.07065276 -114.26131639 143.51069904 -116.76123047 145.359375 C-119.94873047 147.671875 -119.94873047 147.671875 -121.94873047 147.671875 C-121.94873047 148.331875 -121.94873047 148.991875 -121.94873047 149.671875 C-121.40345703 149.90390625 -120.85818359 150.1359375 -120.29638672 150.375 C-117.28550146 152.03825109 -114.96812238 154.14630925 -112.38623047 156.421875 C-103.96034898 163.69462589 -94.9816542 170.18044767 -85.94873047 176.671875 C-85.12920898 177.26436035 -84.3096875 177.8568457 -83.46533203 178.46728516 C-71.33401705 187.21550777 -58.90524445 195.2038288 -45.94873047 202.671875 C-45.22572754 203.09388184 -44.50272461 203.51588867 -43.7578125 203.95068359 C-18.57836379 218.61015051 7.44333745 230.73979544 36.05126953 236.671875 C36.84267334 236.8469458 37.63407715 237.0220166 38.44946289 237.20239258 C49.79012283 239.24875544 64.91193059 239.62798963 75.05126953 233.671875 C75.75896484 233.13175781 76.46666016 232.59164062 77.19580078 232.03515625 C79.05126953 230.671875 79.05126953 230.671875 81.05126953 230.671875 C89.16515901 215.69238673 88.03733537 200.61173448 83.67260742 184.68505859 C83.01405214 182.55128774 82.24270384 180.4874845 81.43408203 178.40625 C79.99134568 174.51004674 79.63962646 171.78830571 80.05126953 167.671875 C82.05126953 165.671875 82.05126953 165.671875 84.92626953 165.296875 C88.82804903 165.76508854 89.57008389 166.69642928 92.05126953 169.671875 C93.39501953 172.484375 93.39501953 172.484375 94.55126953 175.671875 C95.17775391 177.39277344 95.17775391 177.39277344 95.81689453 179.1484375 C96.22423828 180.31117188 96.63158203 181.47390625 97.05126953 182.671875 C97.63134766 184.29222656 97.63134766 184.29222656 98.22314453 185.9453125 C103.29648335 200.54035242 105.17080685 218.61386552 98.53173828 233.0078125 C92.6005544 243.68081357 84.01834201 250.76923882 72.34814453 254.546875 C36.00328612 264.87437575 -1.93132469 250.53897471 -34.94873047 235.671875 C-36.0537793 235.18315918 -36.0537793 235.18315918 -37.18115234 234.68457031 C-67.47553901 221.26212627 -95.20999497 202.26051984 -121.28271484 181.96582031 C-124.26681123 179.64816046 -127.26500516 177.34881789 -130.26123047 175.046875 C-131.36154871 174.20059602 -132.46181474 173.35424914 -133.56201172 172.5078125 C-134.34962891 171.90195312 -135.13724609 171.29609375 -135.94873047 170.671875 C-136.13306641 171.59484375 -136.31740234 172.5178125 -136.50732422 173.46875 C-141.22612714 195.30884809 -152.17627487 220.13378603 -170.69873047 233.68359375 C-173.07969093 235.14689237 -175.42480676 236.4745187 -177.94873047 237.671875 C-178.67189453 238.04054688 -179.39505859 238.40921875 -180.14013672 238.7890625 C-189.02695738 241.58241642 -201.18087064 241.18459977 -209.57373047 237.234375 C-215.38572577 233.77032659 -222.85348974 228.86235645 -225.94873047 222.671875 C-227.10373047 222.15625 -228.25873047 221.640625 -229.44873047 221.109375 C-238.54602271 216.69115601 -244.4653348 208.48692064 -248.94873047 199.671875 C-249.49980469 198.60646484 -249.49980469 198.60646484 -250.06201172 197.51953125 C-255.94624108 184.59240189 -258.0710808 168.13566249 -258.15185547 154.046875 C-258.15882446 153.23078262 -258.16579346 152.41469025 -258.17297363 151.5738678 C-258.1903398 148.93981759 -258.19669819 146.30598015 -258.19873047 143.671875 C-258.19973755 142.77371063 -258.20074463 141.87554626 -258.20178223 140.95016479 C-258.18605952 120.23897075 -257.34695429 97.97536176 -249.26123047 78.57421875 C-246.98514425 72.63854292 -249.03366615 68.04289827 -251.32373047 62.359375 C-254.40278676 54.53714818 -254.40278676 54.53714818 -255.69873047 50.796875 C-256.03130859 49.84167969 -256.03130859 49.84167969 -256.37060547 48.8671875 C-257.82185327 43.35636814 -258.10691567 37.84721964 -258.13623047 32.171875 C-258.15041016 30.9240625 -258.16458984 29.67625 -258.17919922 28.390625 C-257.93520352 24.45360963 -257.16472475 21.40156497 -255.94873047 17.671875 C-254.11802043 20.41794006 -253.42145871 22.12770031 -252.57373047 25.234375 C-251.30780385 29.6144811 -249.77893336 33.78234396 -248.03466797 37.9921875 C-247.27430895 39.86846912 -246.55345297 41.7610209 -245.86279297 43.6640625 C-241.06881011 56.82338459 -234.6505701 73.43890183 -221.67529297 80.4375 C-220.77552734 80.84484375 -219.87576172 81.2521875 -218.94873047 81.671875 C-219.81884766 80.09212891 -219.81884766 80.09212891 -220.70654297 78.48046875 C-225.81335819 69.09115382 -230.22960303 59.69164187 -233.94873047 49.671875 C-223.33419041 36.45642115 -210.43122344 28.39922387 -193.50341797 26.23046875 C-183.51874955 25.90188624 -174.61985337 27.74419052 -164.94873047 30.171875 C-142.28272503 35.84064011 -122.28172506 34.82325605 -101.63623047 22.734375 C-93.96391217 17.67509264 -87.54267405 11.02549714 -80.94873047 4.671875 C-57.31972006 -17.95928869 -26.25365645 -17.89274506 0 0 Z " fill="#001D5F" transform="translate(493.94873046875,236.328125)"/>
<path d="M0 0 C7.31379079 6.49414183 11.40549076 15.82021167 12.20654297 25.49438477 C12.30526188 28.27053445 12.32864901 31.03463579 12.3125 33.8125 C12.30758545 34.82223877 12.3026709 35.83197754 12.29760742 36.87231445 C12.15053288 46.46232881 10.9766526 55.62709419 9 65 C8.83902832 65.77843262 8.67805664 66.55686523 8.51220703 67.35888672 C3.576309 90.54006394 -5.604752 112.07669769 -15.77246094 133.38769531 C-17.26363208 136.56103089 -18.65223021 139.7635188 -20 143 C-20.9075 142.21625 -21.815 141.4325 -22.75 140.625 C-23.39324219 140.0784375 -24.03648437 139.531875 -24.69921875 138.96875 C-26.3610433 137.54674733 -28.00768063 136.10693001 -29.64453125 134.65625 C-44.55341977 121.72323827 -62.33882196 112.47821034 -82.5546875 112.7265625 C-101.14068848 114.20164194 -113.72371394 123.93003321 -126.46777344 136.44091797 C-142.0407931 151.67584602 -160.05053558 160.11409435 -182.18945312 160.54101562 C-190.0342042 160.40384679 -197.42970998 158.40409036 -205 156.5 C-223.03880497 151.99452619 -239.2466758 150.19419769 -256.25 159.6875 C-262.83912379 163.95681657 -268.50063127 169.42989984 -274 175 C-277.63335878 168.28988208 -280.38446619 161.47215917 -282.87109375 154.26171875 C-283.75522871 151.70721118 -284.69013007 149.1984665 -285.6875 146.6875 C-288.35173535 139.20226735 -289.36629905 132.1174804 -289.3125 124.1875 C-289.30686035 123.3123877 -289.3012207 122.43727539 -289.29541016 121.53564453 C-289.06448342 109.16848884 -286.24061418 98.85372715 -277.7734375 89.5546875 C-266.85824897 79.05531567 -254.3135027 75.59677288 -239.5 75.6875 C-238.05923096 75.69487183 -238.05923096 75.69487183 -236.58935547 75.70239258 C-222.87425696 75.92441186 -210.15623497 78.77632288 -197.21972656 83.23583984 C-195.6803994 83.76576659 -194.13781449 84.28628756 -192.59277344 84.79931641 C-172.45928039 91.50402523 -152.6334667 100.27467262 -134.66650391 111.63647461 C-132.78927167 112.82488784 -132.78927167 112.82488784 -130 114 C-127.80924817 113.54329844 -127.80924817 113.54329844 -126 112 C-125.21625 111.48824219 -124.4325 110.97648437 -123.625 110.44921875 C-122.325625 109.57716797 -122.325625 109.57716797 -121 108.6875 C-107.17303391 99.79741039 -93.11960691 96.9038418 -76.92578125 99.578125 C-62.31025731 102.82930323 -48.62360129 109.64567022 -36.4453125 118.2734375 C-34.02808653 119.98016893 -31.55403908 121.5078553 -29 123 C-28.75564209 122.21471924 -28.75564209 122.21471924 -28.50634766 121.41357422 C-26.81886562 116.15814172 -24.82690136 111.11244621 -22.63720703 106.04760742 C-3.12503366 62.42968563 -3.12503366 62.42968563 -5 16 C-7.5898362 12.86123112 -11.0695937 10.21103008 -15.1796875 9.76171875 C-43.0852377 8.99330505 -71.02155516 33.53456912 -90.3046875 51.515625 C-92.33681219 53.38871385 -94.39044155 55.18555262 -96.4921875 56.9765625 C-102.07627432 61.84507741 -107.26577399 67.11636048 -112.4921875 72.36181641 C-114.25668446 74.13170488 -116.02650529 75.89614422 -117.796875 77.66015625 C-118.93261268 78.79655426 -120.06804037 79.93326219 -121.203125 81.0703125 C-121.72610168 81.59126495 -122.24907837 82.11221741 -122.78790283 82.6489563 C-125.07481414 84.95044787 -127.19842118 87.25382221 -129.19824219 89.81201172 C-131 92 -131 92 -133.625 92.9375 C-134.40875 92.958125 -135.1925 92.97875 -136 93 C-136.66 92.34 -137.32 91.68 -138 91 C-137.8559145 86.72546355 -134.62262064 83.85150379 -131.9375 80.8125 C-131.40729248 80.20446533 -130.87708496 79.59643066 -130.33081055 78.9699707 C-120.6064485 67.91174218 -110.38646278 57.30961726 -100 46.875 C-98.97773315 45.84572388 -98.97773315 45.84572388 -97.93481445 44.7956543 C-93.45278386 40.32786803 -88.7994415 36.12277423 -84 32 C-82.9902021 31.11145304 -81.98103142 30.22219247 -80.97265625 29.33203125 C-61.93579612 12.85045436 -25.68459723 -18.16267947 0 0 Z " fill="#0497FE" transform="translate(534,111)"/>
<path d="M0 0 C2.00597781 1.64833834 2.91395727 2.56008151 3.41992188 5.14697266 C3.47477975 7.97489593 3.51715938 10.79637598 3.5 13.625 C3.49572998 14.68952393 3.49145996 15.75404785 3.48706055 16.85083008 C3.19865192 30.76272475 0.41651115 44.54017301 -3.796875 57.78515625 C-7.0297123 67.21167928 -7.0297123 67.21167928 -5.4375 76.62890625 C-3.3994974 79.47477343 -0.9769154 81.91129579 1.49511719 84.37939453 C4.13930833 87.22691899 6.14857482 90.45451402 8.1875 93.75 C8.6007251 94.41362549 9.0139502 95.07725098 9.43969727 95.76098633 C17.57403895 109.24384764 23.33655368 124.07757788 22 140 C21.32421875 142.4609375 21.32421875 142.4609375 20.5 144.75 C18.84591592 149.43657156 18.87512481 153.60064154 19 158.5 C19.26236764 170.862225 15.7961793 181.18054804 7.1875 190.3125 C3.48742289 193.81746947 -0.25296053 196.17699245 -5 198 C-5.88945313 198.35835937 -6.77890625 198.71671875 -7.6953125 199.0859375 C-11.80081318 200.22150152 -15.51311812 200.30105212 -19.75 200.25 C-20.54986328 200.24395752 -21.34972656 200.23791504 -22.17382812 200.23168945 C-27.99817683 200.13410441 -33.36910041 199.52209805 -39 198 C-39.75450439 197.79665039 -40.50900879 197.59330078 -41.28637695 197.38378906 C-47.3933084 195.64412166 -52.98750529 193.345138 -58.6875 190.5625 C-59.48994141 190.18029297 -60.29238281 189.79808594 -61.11914062 189.40429688 C-65.86732757 187.12129107 -70.45796046 184.66928428 -75 182 C-76.32064453 183.35544922 -76.32064453 183.35544922 -77.66796875 184.73828125 C-78.84087506 185.92995407 -80.01406728 187.12134553 -81.1875 188.3125 C-82.0547168 189.20485352 -82.0547168 189.20485352 -82.93945312 190.11523438 C-86.06606709 193.27717731 -88.96053283 196.01255345 -93 198 C-93.66 198 -94.32 198 -95 198 C-93.65083622 194.43763266 -92.06961279 191.16835795 -90.19921875 187.8515625 C-89.64065186 186.85761475 -89.08208496 185.86366699 -88.5065918 184.83959961 C-87.9062915 183.77878174 -87.30599121 182.71796387 -86.6875 181.625 C-86.06593018 180.52099854 -85.44436035 179.41699707 -84.80395508 178.27954102 C-82.87257732 174.85116827 -80.93676464 171.42533196 -79 168 C-77.83326136 165.93363439 -76.66659175 163.86722979 -75.5 161.80078125 C-74.39594069 159.84629352 -73.29177634 157.89186512 -72.1875 155.9375 C-71.64931641 154.98496338 -71.11113281 154.03242676 -70.55664062 153.05102539 C-68.20212446 148.88609481 -65.84410864 144.72339562 -63.46875 140.5703125 C-59.49471754 133.60158654 -55.73961019 126.57901647 -52.20727539 119.3762207 C-49.94819128 114.80430355 -47.55302538 110.32779227 -45.07836914 105.86914062 C-26.50095216 72.39046948 -8.81084775 37.51641752 0 0 Z " fill="#011D5F" transform="translate(546,196)"/>
<path d="M0 0 C0 0.66 0 1.32 0 2 C-1.010625 2.391875 -2.02125 2.78375 -3.0625 3.1875 C-5.92763779 4.39877776 -8.31258592 5.83882404 -10.8125 7.6875 C-14 10 -14 10 -16 10 C-16 10.66 -16 11.32 -16 12 C-15.18208984 12.34804688 -15.18208984 12.34804688 -14.34765625 12.703125 C-11.33677099 14.36637609 -9.01939191 16.47443425 -6.4375 18.75 C1.98838149 26.02275089 10.96707627 32.50857267 20 39 C20.81952148 39.59248535 21.63904297 40.1849707 22.48339844 40.79541016 C34.61471342 49.54363277 47.04348602 57.5319538 60 65 C60.72300293 65.42200684 61.44600586 65.84401367 62.19091797 66.27880859 C87.37036668 80.93827551 113.39206792 93.06792044 142 99 C142.79140381 99.1750708 143.58280762 99.3501416 144.39819336 99.53051758 C155.7388533 101.57688044 170.86066105 101.95611463 181 96 C181.70769531 95.45988281 182.41539062 94.91976562 183.14453125 94.36328125 C185 93 185 93 187 93 C195.11388948 78.02051173 193.98606583 62.93985948 189.62133789 47.01318359 C188.96278261 44.87941274 188.19143431 42.8156095 187.3828125 40.734375 C185.94007615 36.83817174 185.58835693 34.11643071 186 30 C188 28 188 28 190.875 27.625 C194.7767795 28.09321354 195.51881436 29.02455428 198 32 C199.34375 34.8125 199.34375 34.8125 200.5 38 C200.91765625 39.14726562 201.3353125 40.29453125 201.765625 41.4765625 C202.37664062 43.22066406 202.37664062 43.22066406 203 45 C203.38671875 46.08023438 203.7734375 47.16046875 204.171875 48.2734375 C209.24521381 62.86847742 211.11953732 80.94199052 204.48046875 95.3359375 C198.54928487 106.00893857 189.96707248 113.09736382 178.296875 116.875 C141.95201659 127.20250075 104.01740578 112.86709971 71 98 C70.26330078 97.67418945 69.52660156 97.34837891 68.76757812 97.01269531 C38.47319146 83.59025127 10.73873549 64.58864484 -15.33398438 44.29394531 C-18.31808076 41.97628546 -21.31627469 39.67694289 -24.3125 37.375 C-25.41281825 36.52872102 -26.51308428 35.68237414 -27.61328125 34.8359375 C-28.40089844 34.23007812 -29.18851562 33.62421875 -30 33 C-30.18433594 33.92296875 -30.36867188 34.8459375 -30.55859375 35.796875 C-35.27739667 57.63697309 -46.2275444 82.46191103 -64.75 96.01171875 C-67.13096046 97.47501737 -69.47607629 98.8026437 -72 100 C-72.72316406 100.36867188 -73.44632812 100.73734375 -74.19140625 101.1171875 C-83.07822692 103.91054142 -95.23214017 103.51272477 -103.625 99.5625 C-109.3474714 96.1551025 -114.41361013 91.81976812 -119 87 C-119 86.67 -119 86.34 -119 86 C-118.38705078 86.04189453 -117.77410156 86.08378906 -117.14257812 86.12695312 C-100.07116878 87.13566018 -88.37441763 85.24908968 -75.140625 74.16455078 C-62.64576684 63.01820341 -54.4257445 48.79661908 -46.9765625 34 C-38.48466305 17.24831162 -28.1234006 8.44605956 -10.671875 2.19921875 C-7.09608524 1.03138103 -3.77351205 0 0 0 Z " fill="#0296FE" transform="translate(388,374)"/>
<path d="M0 0 C1.79919113 0.49194009 3.59868796 0.98276304 5.3984375 1.47265625 C26.70236369 7.44952049 46.39265947 16.87903252 66 27 C60.60119575 43.74930235 44.42151988 56.35087325 30 65 C20.26264773 69.86867613 5.74859271 64.95822947 -4 62.5 C-23.81953292 57.54633591 -39.43809157 57.30414654 -58 67 C-66.53835746 51.22890771 -73.8726914 33.89434858 -69.83984375 15.6015625 C-67.28862903 7.69872993 -62.76598861 3.24693008 -55.66015625 -0.80859375 C-39.04140263 -8.25164787 -17.00475976 -5.02069316 0 0 Z " fill="#FDFDFE" transform="translate(333,205)"/>
<path d="M0 0 C2.71070827 2.71070827 2.29911271 4.21586047 2.3125 8 C2.10674295 19.67671252 -1.76336284 29.77410157 -9.8125 38.3125 C-13.51257711 41.81746947 -17.25296053 44.17699245 -22 46 C-23.33417969 46.53753906 -23.33417969 46.53753906 -24.6953125 47.0859375 C-28.80081318 48.22150152 -32.51311812 48.30105212 -36.75 48.25 C-37.54986328 48.24395752 -38.34972656 48.23791504 -39.17382812 48.23168945 C-44.99817683 48.13410441 -50.36910041 47.52209805 -56 46 C-56.75450439 45.79665039 -57.50900879 45.59330078 -58.28637695 45.38378906 C-64.3933084 43.64412166 -69.98750529 41.345138 -75.6875 38.5625 C-76.48994141 38.18029297 -77.29238281 37.79808594 -78.11914062 37.40429688 C-82.86732757 35.12129107 -87.45796046 32.66928428 -92 30 C-92.88042969 30.90363281 -93.76085937 31.80726563 -94.66796875 32.73828125 C-95.84087506 33.92995407 -97.01406728 35.12134553 -98.1875 36.3125 C-99.0547168 37.20485352 -99.0547168 37.20485352 -99.93945312 38.11523438 C-103.06606709 41.27717731 -105.96053283 44.01255345 -110 46 C-110.66 46 -111.32 46 -112 46 C-110.583396 42.22954824 -108.86002579 38.79620026 -106.8828125 35.2890625 C-106.27566406 34.20882812 -105.66851562 33.12859375 -105.04296875 32.015625 C-104.09357422 30.33726562 -104.09357422 30.33726562 -103.125 28.625 C-102.18720703 26.95824219 -102.18720703 26.95824219 -101.23046875 25.2578125 C-98.17273105 19.82758065 -95.10029616 14.40604406 -92 9 C-87.81574338 9.5583099 -84.44766711 10.54355806 -80.625 12.3125 C-62.83729237 19.98344891 -38.74722902 24.20916305 -19.9375 18.375 C-11.43133641 14.7908005 -3.67381368 8.68355962 0 0 Z " fill="#FD3360" transform="translate(563,348)"/>
<path d="M0 0 C3.36918273 1.96025177 5.39177925 3.41039892 6.80859375 7.11328125 C7.30791819 9.05203751 7.66544529 11.02612719 8 13 C8.54527344 12.7834375 9.09054687 12.566875 9.65234375 12.34375 C15.63584036 10.13445894 21.72345935 8.25770566 27.8984375 10.7734375 C30.50412182 12.49832712 31.85067276 14.30429713 32.50390625 17.34765625 C32.69318445 21.39576753 32.20725807 24.46112902 30.75 28.25 C26.53922169 32.46077831 21.399336 34.60595479 16 37 C16.15984375 37.89589844 16.3196875 38.79179687 16.484375 39.71484375 C17.29709311 44.89284324 17.89199607 49.81956517 15.875 54.75 C12.29155811 59.05013027 8.49374916 62.76021643 2.75 63.3125 C-1.86467969 62.92794336 -3.64415748 62.20330423 -7 59 C-8.36046003 55.73694173 -9.24935276 52.45034345 -10 49 C-11.4589426 49.47730838 -12.91713496 49.95691042 -14.375 50.4375 C-15.18710937 50.70433594 -15.99921875 50.97117187 -16.8359375 51.24609375 C-19.01031799 51.95179729 -19.01031799 51.95179729 -21 53 C-26.26883876 53.59873168 -28.8846468 52.25400021 -33 49 C-34.74066912 45.51866175 -34.44364397 41.8063367 -34 38 C-31.44105697 32.45562344 -27.3483044 29.62649404 -22 27 C-19 26.1875 -19 26.1875 -17 26 C-17.33 25.030625 -17.66 24.06125 -18 23.0625 C-19.61563823 17.27898343 -20.05918199 12.15910175 -17.375 6.6875 C-12.31541175 0.96217645 -7.59474752 -1.53525308 0 0 Z " fill="#FAFBFC" transform="translate(308,323)"/>
<path d="M0 0 C2.00597781 1.64833834 2.91395727 2.56008151 3.41992188 5.14697266 C3.47477975 7.97489593 3.51715938 10.79637598 3.5 13.625 C3.49572998 14.68952393 3.49145996 15.75404785 3.48706055 16.85083008 C3.19865192 30.76272475 0.41651115 44.54017301 -3.796875 57.78515625 C-7.0297123 67.21167928 -7.0297123 67.21167928 -5.4375 76.62890625 C-3.3994974 79.47477343 -0.9769154 81.91129579 1.49511719 84.37939453 C4.13930833 87.22691899 6.14857482 90.45451402 8.1875 93.75 C8.6007251 94.41362549 9.0139502 95.07725098 9.43969727 95.76098633 C17.83570499 109.67756522 24.95840301 126.61023377 21.32421875 143.05859375 C20.62120491 145.40752625 19.86922125 147.70794635 19 150 C18.67 150 18.34 150 18 150 C17.731875 148.83726562 17.46375 147.67453125 17.1875 146.4765625 C14.33726003 134.63652844 10.35761423 123.92178709 5 113 C4.70818848 112.38801758 4.41637695 111.77603516 4.11572266 111.14550781 C-3.20849054 95.88849129 -13.00856636 78.99143364 -25 67 C-24.41734375 65.90171875 -23.8346875 64.8034375 -23.234375 63.671875 C-17.20524941 51.87651811 -12.68651465 39.87457897 -8.5625 27.3125 C-8.30601685 26.53136841 -8.04953369 25.75023682 -7.78527832 24.94543457 C-5.07798163 16.6645728 -2.44050863 8.36394769 0 0 Z " fill="#0697FE" transform="translate(546,196)"/>
<path d="M0 0 C0.66 0.33 1.32 0.66 2 1 C1.3503125 2.670625 1.3503125 2.670625 0.6875 4.375 C-3.81260824 18.04002763 -4.54723916 32.35890965 -4.4375 46.625 C-4.43512329 47.44572998 -4.43274658 48.26645996 -4.43029785 49.11206055 C-4.3450358 68.02923447 -1.82773725 85.96519174 4 104 C4.58669898 105.95732765 5.17033737 107.91557701 5.75 109.875 C6.16568468 111.25029719 6.58192708 112.62542692 7 114 C-1.41325305 111.20049373 -6.29184289 103.75570917 -10.28149414 96.18701172 C-13.86409482 89.02181036 -16.95157273 81.76246122 -19 74 C-19.22429687 73.154375 -19.44859375 72.30875 -19.6796875 71.4375 C-23.76305215 52.19534332 -22.55356969 30.68079595 -12.01171875 13.8046875 C-8.4332436 8.81566778 -4.3367103 4.3367103 0 0 Z " fill="#FF3762" transform="translate(225,330)"/>
<path d="M0 0 C1.89213369 2.38573379 3.02391783 4.07175348 4 7 C3.1214612 10.37329243 2.08956027 13.65163712 1.00195312 16.9609375 C-2.4949676 28.08658729 -3.36620047 39.26385371 -3.3125 50.875 C-3.30831055 52.13368896 -3.30412109 53.39237793 -3.29980469 54.68920898 C-3.08919509 72.40842205 -0.23850847 89.64333904 3.54882812 106.91845703 C3.93499242 108.70007869 4.29090199 110.488212 4.640625 112.27734375 C7.39566676 125.1518658 13.93664783 137.39800882 20 149 C10.23902215 145.50428648 3.22772248 136.91362105 -1.62890625 128.015625 C-6.27144098 118.10224257 -8.27887366 107.75295209 -10 97 C-10.176521 95.9287085 -10.35304199 94.85741699 -10.53491211 93.75366211 C-11.0495952 89.59972377 -11.17915862 85.55523603 -11.203125 81.375 C-11.21009399 80.55890762 -11.21706299 79.74281525 -11.22424316 78.9019928 C-11.24160933 76.26794259 -11.24796772 73.63410515 -11.25 71 C-11.25100708 70.10183563 -11.25201416 69.20367126 -11.25305176 68.27828979 C-11.24246196 54.32857091 -10.69614635 40.72634927 -8 27 C-7.8448291 26.20110352 -7.6896582 25.40220703 -7.52978516 24.57910156 C-5.82231597 16.08178804 -3.64881218 7.8992902 0 0 Z " fill="#FB3461" transform="translate(247,309)"/>
<path d="M0 0 C1.48383605 0.02117875 2.96749673 0.07428785 4.44921875 0.15625 C5.18333984 0.1665625 5.91746094 0.176875 6.67382812 0.1875 C11.46270932 0.32347533 15.58893447 1.16635502 20.13671875 2.65625 C-1.02881631 36.75226552 -1.02881631 36.75226552 -8.14453125 39.5546875 C-12.41238432 40.30867488 -14.45907412 39.86557155 -18.36328125 37.84375 C-20.86328125 35.65625 -20.86328125 35.65625 -21.86328125 33.65625 C-22.28210506 26.00891254 -19.12016594 21.28838979 -14.55078125 15.46875 C-13.38727512 13.93415886 -12.22449852 12.39901428 -11.0625 10.86328125 C-10.50183838 10.14672363 -9.94117676 9.43016602 -9.36352539 8.69189453 C-7.66795734 6.49066801 -7.66795734 6.49066801 -5.96484375 3.13671875 C-3.86328125 0.65625 -3.86328125 0.65625 0 0 Z " fill="#0397FE" transform="translate(431.86328125,362.34375)"/>
<path d="M0 0 C8.44568475 2.16359111 16.32863531 3.25774856 25.03735352 3.578125 C22.78407458 5.83140393 21.43153599 6.2479565 18.41235352 7.140625 C17.59508789 7.38941406 16.77782227 7.63820313 15.93579102 7.89453125 C9.08739223 9.50971964 2.44862029 9.69121578 -4.54467773 9.5703125 C-6.38256281 9.55279278 -8.22045379 9.53588483 -10.05834961 9.51953125 C-12.91504772 9.4886745 -15.77144025 9.45318526 -18.62792969 9.40673828 C-28.91201884 9.24875365 -38.14072312 9.15355887 -47.96264648 12.578125 C-49.62442642 12.93502321 -51.29029509 13.27459626 -52.96264648 13.578125 C-55.43764648 9.618125 -55.43764648 9.618125 -57.96264648 5.578125 C-54.84350878 2.00141208 -51.95752408 0.5149761 -47.52514648 -1.109375 C-46.41268555 -1.52574219 -45.30022461 -1.94210937 -44.15405273 -2.37109375 C-29.21154708 -7.29096403 -14.72935334 -3.84070056 0 0 Z " fill="#FB3561" transform="translate(332.962646484375,267.421875)"/>
<path d="M0 0 C2.42578125 1.55859375 2.42578125 1.55859375 4 3 C4 3.99 4 4.98 4 6 C2.824375 5.731875 1.64875 5.46375 0.4375 5.1875 C-0.39652344 5.00832031 -1.23054688 4.82914063 -2.08984375 4.64453125 C-4.11074131 4.19694991 -6.12366788 3.71241958 -8.12890625 3.19921875 C-26.10782706 -1.03938716 -45.76094374 -1.37879929 -62.25 7.75 C-62.93578125 8.17796875 -63.6215625 8.6059375 -64.328125 9.046875 C-66 10 -66 10 -68 10 C-68.4596998 4.25375254 -67.67500704 1.44869274 -64 -3 C-46.57800068 -20.84692613 -18.24541049 -11.03790672 0 0 Z " fill="#FF3763" transform="translate(344,226)"/>
<path d="M0 0 C5.26844482 0.9420398 8.25376879 4.39276323 12 8 C12.75023437 8.71285156 13.50046875 9.42570312 14.2734375 10.16015625 C24.36354291 20.47410359 29.27503609 32.83389238 29.39379883 47.1394043 C29.248402 55.87154888 26.99512304 65.36196833 21 72 C20.34 72 19.68 72 19 72 C19.0314209 71.13387085 19.0314209 71.13387085 19.06347656 70.25024414 C19.81585851 46.20973614 14.95041826 25.69607292 1.50390625 5.5390625 C0 3 0 3 0 0 Z " fill="#0598FF" transform="translate(561,275)"/>
<path d="M0 0 C5.89456226 2.23819713 10.25847319 5.15935592 13 11 C13.5 14.125 13.5 14.125 13 17 C10.07583913 20.60646508 8.11064107 21.86116987 3.5 22.4375 C-2.1378564 22.3756588 -6.72591147 19.49974211 -11 16 C-13.68230688 12.17830612 -14.7004611 9.70309596 -14 5 C-10.04075003 0.11692504 -6.15851377 -0.92325249 0 0 Z " fill="#FF3863" transform="translate(371,434)"/>
<path d="M0 0 C1.83071004 2.74606506 2.52727175 4.45582531 3.375 7.5625 C4.63686358 11.92854797 6.16497357 16.08385874 7.890625 20.28515625 C9.17400304 23.4258173 10.4034641 26.58478491 11.625 29.75 C12.23214844 31.32007813 12.23214844 31.32007813 12.8515625 32.921875 C13.23054687 33.93765625 13.60953125 34.9534375 14 36 C14.43828125 36.98742187 14.8765625 37.97484375 15.328125 38.9921875 C16.23665748 43.05945498 15.12118222 44.78187201 13.125 48.375 C12.55007812 49.43460937 11.97515625 50.49421875 11.3828125 51.5859375 C10.92648438 52.38257813 10.47015625 53.17921875 10 54 C6.90228265 51.4245722 5.87719871 48.60932727 4.5 44.875 C4.07203125 43.71484375 3.6440625 42.5546875 3.203125 41.359375 C2.80609375 40.25078125 2.4090625 39.1421875 2 38 C1.52820313 36.70835937 1.52820313 36.70835937 1.046875 35.390625 C-1.38501606 28.47642492 -2.14958171 21.84098104 -2.1875 14.5 C-2.20167969 13.2521875 -2.21585938 12.004375 -2.23046875 10.71875 C-1.98647305 6.78173463 -1.21599428 3.72968997 0 0 Z " fill="#0798FE" transform="translate(238,254)"/>
<path d="M0 0 C2.75 1.9375 2.75 1.9375 4 5 C4.39337866 9.75551086 3.67268836 13.6550253 0.6875 17.4375 C-3.53073455 21.45953759 -6.32746024 22.45706793 -12.09765625 22.328125 C-15.03081731 21.82219989 -16.28252329 20.33576832 -18 18 C-19.5547669 14.89046621 -19.28644437 12.43733239 -19 9 C-14.44194571 0.53504203 -9.32244663 -1.45486667 0 0 Z " fill="#F63F63" transform="translate(481,253)"/>
<path d="M0 0 C4.63235294 2.26470588 4.63235294 2.26470588 6 5 C6.6378991 8.96466402 6.85007704 12.52690233 4.80078125 16.078125 C1.21710079 20.37493079 -1.78182383 22.71768667 -7.4375 23.4375 C-11 23 -11 23 -13.9375 21.0625 C-16.32401494 17.51888691 -16.79001644 15.48582878 -16.55859375 11.28515625 C-15.57820439 7.27447252 -13.13134283 4.5926944 -10 2 C-6.50165512 -0.02998736 -4.06649691 -0.41494866 0 0 Z " fill="#00DFF1" transform="translate(460,284)"/>
<path d="M0 0 C3 2.0625 3 2.0625 5 5 C5.71429314 9.36512474 5.34615939 11.3793004 3.1875 15.25 C-1.16494845 20.72164948 -1.16494845 20.72164948 -5 22 C-11.86648501 22.4359673 -11.86648501 22.4359673 -15.4375 21.0625 C-17.99326541 17.68888966 -18.2922621 14.1629529 -18 10 C-14.28225858 2.11838819 -8.43382938 -1.20483277 0 0 Z " fill="#7EDA40" transform="translate(432,273)"/>
<path d="M0 0 C2.31279611 1.15639806 4.17409828 2.17409828 6 4 C6.64740048 8.27776011 6.93941904 12.33817961 4.765625 16.18359375 C1.78990797 19.72646477 -0.33295542 21.70038726 -5.12109375 22.23828125 C-8.82236099 22.3568716 -11.2850869 22.40104881 -14.5625 20.5625 C-16.7164411 16.72286586 -16.62429271 13.3006831 -16 9 C-13.17452965 1.93632413 -7.38362018 -0.93973348 0 0 Z " fill="#F6E822" transform="translate(449,241)"/>
<path d="M0 0 C2.4375 1.5 2.4375 1.5 4 4 C4.77851733 7.86320864 4.90979096 11.38184782 2.94140625 14.8828125 C0.26723452 18.16799676 -1.62482255 19.81664301 -5.8125 20.375 C-9 20 -9 20 -11.875 18.0625 C-14.35451688 14.48907861 -14.72766863 12.48432847 -14.5 8.22265625 C-13.65103077 4.44872271 -11.77779315 2.64551728 -9 0 C-5.81452856 -1.59273572 -3.39809153 -0.76164121 0 0 Z " fill="#FF3763" transform="translate(393,171)"/>
<path d="M0 0 C2.5625 1.5625 2.5625 1.5625 4 4 C4.56288002 7.94016013 4.60396028 10.05782196 2.4375 13.4375 C-0.95704368 15.61348954 -3.0365649 15.55627159 -7 15 C-10.82628053 12.92049971 -11.79139239 11.687178 -13.0625 7.5 C-13 4 -13 4 -11.625 1.5625 C-7.77738204 -0.72774879 -4.36702307 -0.77724998 0 0 Z " fill="#0598FF" transform="translate(405,452)"/>
<path d="M0 0 C0 4.05849526 -1.32019778 5.91173405 -3.78027344 9.06591797 C-8.3481001 13.04593588 -14.33949473 13.82358967 -20.125 15.0625 C-22.03732422 15.52172852 -22.03732422 15.52172852 -23.98828125 15.99023438 C-34.20229215 18.35269527 -34.20229215 18.35269527 -38 17 C-33.91844352 15.10032492 -29.8344298 13.20598838 -25.75 11.3125 C-24.61046875 10.78205078 -23.4709375 10.25160156 -22.296875 9.70507812 C-14.93221 6.29473609 -7.51700842 3.06010454 0 0 Z " fill="#F13764" transform="translate(434,353)"/>
<path d="M0 0 C0.7734375 1.2684375 0.7734375 1.2684375 1.5625 2.5625 C3.80130883 5.36445967 3.80130883 5.36445967 7.1875 5.0625 C11.00691979 3.99807153 14.34911876 2.605502 17.88671875 0.83984375 C20 0 20 0 24 0 C24.26554687 0.91523438 24.53109375 1.83046875 24.8046875 2.7734375 C25.15789062 3.96195312 25.51109375 5.15046875 25.875 6.375 C26.22304688 7.55835938 26.57109375 8.74171875 26.9296875 9.9609375 C27.77687419 13.06491558 27.77687419 13.06491558 30 15 C32.68839385 15.26991906 35.29141936 15.08737357 38 15 C37 18 37 18 35 19 C31.5625 19.3125 31.5625 19.3125 28 19 C25.17612349 16.10109295 24.28039088 13.1215635 23.3125 9.25 C23.06113281 8.26515625 22.80976563 7.2803125 22.55078125 6.265625 C22.36902344 5.51796875 22.18726563 4.7703125 22 4 C20.58208592 4.45445964 19.16571954 4.91374944 17.75 5.375 C16.96109375 5.63023437 16.1721875 5.88546875 15.359375 6.1484375 C13.00372195 6.93808831 13.00372195 6.93808831 10.9296875 8.0859375 C7.93090251 9.5064146 5.25650795 9.24122281 2 9 C0 7 0 7 -0.125 3.375 C-0.08375 2.26125 -0.0425 1.1475 0 0 Z " fill="#CFCFCF" transform="translate(278,363)"/>
<path d="M0 0 C2.42522207 2.42522207 2.29629254 3.1720679 2.3125 6.5 C2.33763672 7.69109375 2.33763672 7.69109375 2.36328125 8.90625 C2.24339844 9.5971875 2.12351562 10.288125 2 11 C-1.24826674 13.16551116 -2.23094157 13.55156953 -6 13 C-8.3125 11.4375 -8.3125 11.4375 -10 9 C-10.42880369 5.50831283 -10.60791865 3.14431746 -8.9375 0 C-5.80557344 -1.61647822 -3.32814714 -0.78665296 0 0 Z " fill="#FF3763" transform="translate(576,381)"/>
<path d="M0 0 C0.66 0.66 1.32 1.32 2 2 C1.953125 4.4453125 1.953125 4.4453125 1 7 C-1.328125 8.6171875 -1.328125 8.6171875 -4.25 9.875 C-5.68085938 10.52082031 -5.68085938 10.52082031 -7.140625 11.1796875 C-10.26092162 12.07485456 -11.93358428 11.9677695 -15 11 C-16 10 -16 10 -16.0625 7.4375 C-16.041875 6.633125 -16.02125 5.82875 -16 5 C-14.27656245 4.15488176 -12.54595947 3.32436646 -10.8125 2.5 C-9.36810547 1.80390625 -9.36810547 1.80390625 -7.89453125 1.09375 C-4.97324292 -0.01011064 -3.08465932 -0.38358458 0 0 Z " fill="#EFE324" transform="translate(382,329)"/>
<path d="M0 0 C0.33 1.65 0.66 3.3 1 5 C-8.59282371 11.69266771 -8.59282371 11.69266771 -15 11 C-15.66 10.34 -16.32 9.68 -17 9 C-16.953125 6.5546875 -16.953125 6.5546875 -16 4 C-13.671875 2.3828125 -13.671875 2.3828125 -10.75 1.125 C-9.79609375 0.69445312 -8.8421875 0.26390625 -7.859375 -0.1796875 C-4.75822398 -1.06936197 -3.05819507 -0.90406496 0 0 Z " fill="#F1F3F6" transform="translate(406,320)"/>
<path d="M0 0 C2 1.6875 2 1.6875 3 4 C2.91860583 7.25576675 2.21633825 8.71412445 0.25 11.3125 C-2 13 -2 13 -4.5625 13.4375 C-7 13 -7 13 -8.8125 11.9375 C-10.67036623 8.90624457 -10.37133265 6.46577141 -10 3 C-7.7810369 -1.04634448 -4.19567567 -0.52445946 0 0 Z " fill="#0B9AFF" transform="translate(416,152)"/>
<path d="M0 0 C0 3 0 3 -1.15234375 4.515625 C-3.47593408 6.38235719 -5.8485505 7.52131447 -8.5625 8.75 C-9.53316406 9.19859375 -10.50382812 9.6471875 -11.50390625 10.109375 C-12.32761719 10.40328125 -13.15132813 10.6971875 -14 11 C-14.66 10.67 -15.32 10.34 -16 10 C-16 9.34 -16 8.68 -16 8 C-15.01257813 7.59007812 -14.02515625 7.18015625 -13.0078125 6.7578125 C-11.71343379 6.21379826 -10.41916884 5.66951331 -9.125 5.125 C-8.47402344 4.85558594 -7.82304687 4.58617187 -7.15234375 4.30859375 C-4.33029055 3.11576714 -2.18742011 2.18742011 0 0 Z " fill="#D0D0D0" transform="translate(333,347)"/>
<path d="M0 0 C1 2 1 2 0.9375 4.5 C0.71706155 7.17653739 0.71706155 7.17653739 3 9 C5.3431213 8.74438677 7.67843403 8.40729228 10 8 C10.99 8 11.98 8 13 8 C9.52563855 10.79643726 7.78513624 12.0130856 3.25 11.9375 C0 11 0 11 -2 8 C-1.43396226 1.43396226 -1.43396226 1.43396226 0 0 Z " fill="#008ECA" transform="translate(448,292)"/>
<path d="M0 0 C0.33 0 0.66 0 1 0 C1.144375 1.134375 1.28875 2.26875 1.4375 3.4375 C1.61171478 6.80777201 1.61171478 6.80777201 3 8 C7.21571713 8.28743526 10.18009548 7.79760213 14 6 C9.23774689 10.92099488 9.23774689 10.92099488 5.0625 11.1875 C2 11 2 11 -1 9 C-1.4375 2.875 -1.4375 2.875 0 0 Z " fill="#AA1B3A" transform="translate(466,261)"/>
<path d="M0 0 C0.33 0 0.66 0 1 0 C1.66 2.31 2.32 4.62 3 7 C5.97 7 8.94 7 12 7 C9 10 9 10 5.5 10.375 C2 10 2 10 0.0625 8.875 C-1.46154563 6.18550771 -1.26357307 4.03109027 -1 1 C-0.67 0.67 -0.34 0.34 0 0 Z " fill="#2C8F75" transform="translate(418,282)"/>
<path d="M0 0 C0.33 0 0.66 0 1 0 C1.66 1.98 2.32 3.96 3 6 C5.64 6.33 8.28 6.66 11 7 C10.67 7.66 10.34 8.32 10 9 C2.61195219 9.36334661 2.61195219 9.36334661 0 7.8125 C-1.32477191 5.41135091 -1.28417861 3.69969684 -1 1 C-0.67 0.67 -0.34 0.34 0 0 Z " fill="#EDAC31" transform="translate(436,251)"/>
<path d="M0 0 C3.57011026 3.732388 4.10913442 8.0949989 5 13 C4.01 13 3.02 13 2 13 C-0.28571429 4.57142857 -0.28571429 4.57142857 0 0 Z " fill="#D1D1D1" transform="translate(293,336)"/>
</svg>
